# xmcd
#
# Track frame offsets:
#	150
#	16429
#	35482
#	54480
#	69507
#	90629
#	115885
#	131986
#	146913
#	163639
#	182606
#	198162
#
# Disc length: 2898 seconds
#
# Revision: 1
# Processed by: cddbd v1.5.2PL0 Copyright (c) Steve Scherf et al.
# Submitted via: audiograbber 1.83.01
#
DISCID=aa0b500c
DTITLE=Dolly Parton - Backwoods Barbie
DYEAR=2008
DGENRE=Country
TTITLE0=Better Get To Livin'
TTITLE1=Made Of Stone
TTITLE2=Drives Me Crazy
TTITLE3=Backwoods Barbie
TTITLE4=Jesus and Gravity
TTITLE5=Only Dreamin'
TTITLE6=The Tracks Of My Tears
TTITLE7=The Lonesomes
TTITLE8=Cologne
TTITLE9=Shinola
TTITLE10=I Will Forever Hate Roses
TTITLE11=Somebody's Everything
EXTD=
EXTT0=
EXTT1=
EXTT2=
EXTT3=
EXTT4=
EXTT5=
EXTT6=
EXTT7=
EXTT8=
EXTT9=
EXTT10=
EXTT11=
PLAYORDER=
